<svg width="2293" height="1343" xmlns="http://www.w3.org/2000/svg" xmlns:xlink="http://www.w3.org/1999/xlink" xml:space="preserve" overflow="hidden"><defs><clipPath id="clip0"><rect x="850" y="364" width="2293" height="1343"/></clipPath><clipPath id="clip1"><rect x="1441" y="1025" width="165" height="167"/></clipPath><clipPath id="clip2"><rect x="1441" y="1025" width="165" height="167"/></clipPath><clipPath id="clip3"><rect x="1441" y="1025" width="165" height="167"/></clipPath><clipPath id="clip4"><rect x="1932" y="1016" width="167" height="167"/></clipPath><clipPath id="clip5"><rect x="1932" y="1016" width="167" height="167"/></clipPath><clipPath id="clip6"><rect x="1932" y="1016" width="167" height="167"/></clipPath><clipPath id="clip7"><rect x="2358" y="938" width="167" height="166"/></clipPath><clipPath id="clip8"><rect x="2358" y="938" width="167" height="166"/></clipPath><clipPath id="clip9"><rect x="2358" y="938" width="167" height="166"/></clipPath><clipPath id="clip10"><rect x="2524" y="1380" width="175" height="176"/></clipPath><clipPath id="clip11"><rect x="2524" y="1380" width="175" height="176"/></clipPath><clipPath id="clip12"><rect x="2524" y="1380" width="175" height="176"/></clipPath><clipPath id="clip13"><rect x="1277" y="1445" width="182" height="182"/></clipPath><clipPath id="clip14"><rect x="1277" y="1445" width="182" height="182"/></clipPath><clipPath id="clip15"><rect x="1277" y="1445" width="182" height="182"/></clipPath><clipPath id="clip16"><rect x="1667" y="1464" width="162" height="160"/></clipPath><clipPath id="clip17"><rect x="1667" y="1464" width="162" height="160"/></clipPath><clipPath id="clip18"><rect x="1667" y="1464" width="162" height="160"/></clipPath><clipPath id="clip19"><rect x="2125" y="1426" width="206" height="208"/></clipPath><clipPath id="clip20"><rect x="2125" y="1426" width="206" height="208"/></clipPath><clipPath id="clip21"><rect x="2125" y="1426" width="206" height="208"/></clipPath><clipPath id="clip22"><rect x="1448" y="1281" width="190" height="190"/></clipPath><clipPath id="clip23"><rect x="1448" y="1281" width="190" height="190"/></clipPath><clipPath id="clip24"><rect x="1448" y="1281" width="190" height="190"/></clipPath><clipPath id="clip25"><rect x="1896" y="1243" width="212" height="213"/></clipPath><clipPath id="clip26"><rect x="1896" y="1243" width="212" height="213"/></clipPath><clipPath id="clip27"><rect x="1896" y="1243" width="212" height="213"/></clipPath><clipPath id="clip28"><rect x="2332" y="1214" width="193" height="191"/></clipPath><clipPath id="clip29"><rect x="2332" y="1214" width="193" height="191"/></clipPath><clipPath id="clip30"><rect x="2332" y="1214" width="193" height="191"/></clipPath><clipPath id="clip31"><rect x="852" y="599" width="331" height="331"/></clipPath><clipPath id="clip32"><rect x="852" y="599" width="331" height="331"/></clipPath><clipPath id="clip33"><rect x="852" y="599" width="331" height="331"/></clipPath><clipPath id="clip34"><rect x="1756" y="364" width="331" height="331"/></clipPath><clipPath id="clip35"><rect x="1756" y="364" width="331" height="331"/></clipPath><clipPath id="clip36"><rect x="1756" y="364" width="331" height="331"/></clipPath><clipPath id="clip37"><rect x="2812" y="568" width="331" height="331"/></clipPath><clipPath id="clip38"><rect x="2812" y="568" width="331" height="331"/></clipPath><clipPath id="clip39"><rect x="2812" y="568" width="331" height="331"/></clipPath><clipPath id="clip40"><rect x="1576" y="1048" width="125" height="124"/></clipPath><clipPath id="clip41"><rect x="1576" y="1048" width="125" height="124"/></clipPath><clipPath id="clip42"><rect x="1576" y="1048" width="125" height="124"/></clipPath><clipPath id="clip43"><rect x="2062" y="1037" width="140" height="137"/></clipPath><clipPath id="clip44"><rect x="2062" y="1037" width="140" height="137"/></clipPath><clipPath id="clip45"><rect x="2062" y="1037" width="140" height="137"/></clipPath><clipPath id="clip46"><rect x="2487" y="959" width="135" height="134"/></clipPath><clipPath id="clip47"><rect x="2487" y="959" width="135" height="134"/></clipPath><clipPath id="clip48"><rect x="2487" y="959" width="135" height="134"/></clipPath></defs><g clip-path="url(#clip0)" transform="translate(-850 -364)"><g clip-path="url(#clip1)"><g clip-path="url(#clip2)"><g clip-path="url(#clip3)"><path d="M68.75 60.1562 73.5625 55.3438C68.289 49.8771 68.289 41.2167 73.5625 35.75L68.75 30.9375C60.7279 39.0252 60.7279 52.0685 68.75 60.1562Z" fill="#7030A0" transform="matrix(1 0 0 1.00606 1441 1025)"/><path d="M59.125 69.7812 63.9375 64.9688C53.2111 54.3104 53.156 36.9746 63.8143 26.2482 63.8552 26.207 63.8962 26.1659 63.9375 26.125L59.125 21.3125C45.7407 34.5077 45.5874 56.0545 58.7825 69.4387 58.8959 69.5537 59.01 69.6678 59.125 69.7812Z" fill="#7030A0" transform="matrix(1 0 0 1.00606 1441 1025)"/><path d="M54.1406 74.7656C38.0963 58.5903 38.0963 32.5035 54.1406 16.3281L49.3281 11.5156C30.5332 30.3086 30.5317 60.7796 49.3247 79.5747 49.3259 79.5759 49.3269 79.5769 49.3281 79.5781Z" fill="#7030A0" transform="matrix(1 0 0 1.00606 1441 1025)"/><path d="M97.9688 60.1562C105.991 52.0685 105.991 39.0252 97.9688 30.9375L93.1562 35.75C95.726 38.3589 97.1487 41.8851 97.1094 45.5469 97.1154 49.2021 95.6974 52.7161 93.1562 55.3438Z" fill="#7030A0" transform="matrix(1 0 0 1.00606 1441 1025)"/><path d="M102.781 64.9688 107.594 69.7812C120.978 56.5861 121.131 35.0393 107.936 21.655 107.823 21.5401 107.709 21.4259 107.594 21.3125L102.781 26.125C113.508 36.7833 113.563 54.1191 102.904 64.8455 102.864 64.8868 102.823 64.9278 102.781 64.9688Z" fill="#7030A0" transform="matrix(1 0 0 1.00606 1441 1025)"/><path d="M112.578 74.7656 117.391 79.5781C136.186 60.7851 136.187 30.3141 117.394 11.5191 117.393 11.5179 117.392 11.5168 117.391 11.5156L112.578 16.3281C128.622 32.5035 128.622 58.5903 112.578 74.7656Z" fill="#7030A0" transform="matrix(1 0 0 1.00606 1441 1025)"/><path d="M135.781 149.033 135.781 149.033C135.728 148.728 135.63 148.432 135.489 148.156 135.489 148.156 135.489 148.156 135.489 148.053L86.5047 52.6625C86.3555 52.3829 86.1642 52.1278 85.9375 51.9062 89.4573 50.4824 91.1565 46.4747 89.7327 42.9548 88.3089 39.435 84.3011 37.7358 80.7812 39.1597 77.2614 40.5835 75.5623 44.5913 76.9861 48.1111 77.6847 49.8381 79.0543 51.2076 80.7812 51.9062 80.5977 52.1082 80.4416 52.3337 80.3172 52.5766L31.3328 147.967C31.3328 147.967 31.3328 147.967 31.3328 148.07 31.192 148.346 31.0936 148.642 31.0406 148.947L31.0406 148.947C30.9978 149.232 30.9978 149.521 31.0406 149.806 31.0406 149.806 31.0406 149.944 31.0406 150.012 31.0874 150.291 31.1682 150.562 31.2813 150.82 31.2813 150.82 31.2813 150.82 31.2813 150.82 31.2813 150.82 31.4531 151.061 31.5219 151.198 31.6265 151.371 31.7414 151.538 31.8656 151.697L31.8656 151.697C31.9531 151.771 32.0449 151.84 32.1406 151.903 32.2891 152.044 32.4502 152.17 32.6219 152.281 32.7561 152.351 32.8938 152.414 33.0344 152.47L33.55 152.659 33.9969 152.659 34.375 152.969 34.6156 152.969 34.8391 152.969C35.1539 152.939 35.4618 152.858 35.75 152.728L83.3938 131.777 130.969 152.677C131.4 152.873 131.87 152.973 132.344 152.969L132.344 152.969C132.628 152.964 132.911 152.923 133.186 152.848L133.427 152.848C133.645 152.766 133.857 152.668 134.062 152.556L134.217 152.453C134.442 152.311 134.65 152.144 134.836 151.955L134.836 151.955C134.97 151.787 135.091 151.609 135.197 151.422 135.272 151.311 135.341 151.196 135.403 151.078 135.403 151.078 135.403 151.078 135.403 151.078 135.519 150.815 135.6 150.538 135.644 150.253 135.644 150.253 135.644 150.133 135.644 150.064 135.752 149.731 135.798 149.382 135.781 149.033ZM106.562 106.838 89.2031 95.0984 97.5734 89.375ZM83.3594 61.6688 94.4109 83.1703 83.1016 90.9562 72.7891 84.0812C72.5653 83.9252 72.3228 83.7982 72.0672 83.7031ZM68.9562 89.7016 77.0172 95.15 60.1562 106.717ZM41.8516 142.502 53.9859 118.852 74.8344 128.013ZM61.0844 114.469 83.1359 99.2922 105.617 114.503 83.3938 124.266ZM119.522 140.147 91.9359 128.03 112.75 118.886 124.867 142.484Z" fill="#7030A0" transform="matrix(1 0 0 1.00606 1441 1025)"/></g></g></g><text font-family="Calibri,Calibri_MSFontService,sans-serif" font-weight="400" font-size="83" transform="matrix(1 0 0 1 906.299 591)">Server</text><path d="M22.9684-4.34381 1614.71 12.2731 1614.61 21.4393 22.8727 4.82236ZM27.355 14.0363 0 0 27.642-13.4622ZM1610.23 3.05915 1637.58 17.0955 1609.94 30.5577Z" fill="#4472C4" transform="matrix(1 0 0 -1 1175.5 815.596)"/><path d="M2771.06 745.024 2114.38 564.009 2116.81 555.172 2773.5 736.187ZM2771.52 726.132 2794.37 746.695 2764.21 752.643ZM2116.36 574.063 2093.5 553.5 2123.67 547.552Z" fill="#4472C4"/><path d="M23.0558 3.82629 539.368 199.259 536.123 207.832 19.8107 12.3994ZM20.8516 22.5947 0 0 30.5868-3.12448ZM538.327 189.063 559.178 211.658 528.591 214.782Z" fill="#4472C4" transform="matrix(-1 0 0 1 1741.68 553.5)"/><text fill="#0070C0" font-family="Calibri,Calibri_MSFontService,sans-serif" font-weight="700" font-size="55" transform="matrix(0.930027 -0.367492 0.367492 0.930027 1309.7 692)">Backhaul N/w</text><g clip-path="url(#clip4)"><g clip-path="url(#clip5)"><g clip-path="url(#clip6)"><path d="M2002.17 1076.52 2007.01 1071.68C2001.7 1066.18 2001.7 1057.47 2007.01 1051.97L2002.17 1047.13C1994.1 1055.26 1994.1 1068.38 2002.17 1076.52Z" fill="#7030A0"/><path d="M1992.48 1086.2 1997.32 1081.36C1986.53 1070.64 1986.48 1053.2 1997.2 1042.41 1997.24 1042.37 1997.28 1042.32 1997.32 1042.28L1992.48 1037.44C1979.02 1050.72 1978.86 1072.39 1992.14 1085.86 1992.25 1085.98 1992.37 1086.09 1992.48 1086.2Z" fill="#7030A0"/><path d="M1987.47 1091.22C1971.33 1074.95 1971.33 1048.7 1987.47 1032.43L1982.63 1027.59C1963.72 1046.49 1963.72 1077.15 1982.62 1096.06 1982.62 1096.06 1982.63 1096.06 1982.63 1096.06Z" fill="#7030A0"/><path d="M2031.56 1076.52C2039.63 1068.38 2039.63 1055.26 2031.56 1047.13L2026.72 1051.97C2029.31 1054.59 2030.74 1058.14 2030.7 1061.82 2030.7 1065.5 2029.28 1069.04 2026.72 1071.68Z" fill="#7030A0"/><path d="M2036.4 1081.36 2041.25 1086.2C2054.71 1072.93 2054.87 1051.25 2041.59 1037.79 2041.48 1037.67 2041.36 1037.56 2041.25 1037.44L2036.4 1042.28C2047.2 1053.01 2047.25 1070.45 2036.53 1081.24 2036.49 1081.28 2036.45 1081.32 2036.4 1081.36Z" fill="#7030A0"/><path d="M2046.26 1091.22 2051.1 1096.06C2070.01 1077.15 2070.01 1046.5 2051.11 1027.59 2051.1 1027.59 2051.1 1027.59 2051.1 1027.59L2046.26 1032.43C2062.4 1048.7 2062.4 1074.95 2046.26 1091.22Z" fill="#7030A0"/><path d="M2069.6 1165.94 2069.6 1165.94C2069.55 1165.63 2069.45 1165.33 2069.31 1165.05 2069.31 1165.05 2069.31 1165.05 2069.31 1164.95L2020.03 1068.98C2019.88 1068.7 2019.69 1068.44 2019.46 1068.22 2023 1066.79 2024.71 1062.76 2023.28 1059.22 2021.84 1055.67 2017.81 1053.96 2014.27 1055.4 2010.73 1056.83 2009.02 1060.86 2010.45 1064.4 2011.16 1066.14 2012.53 1067.52 2014.27 1068.22 2014.09 1068.42 2013.93 1068.65 2013.8 1068.9L1964.52 1164.86C1964.52 1164.86 1964.52 1164.86 1964.52 1164.97 1964.38 1165.25 1964.28 1165.54 1964.23 1165.85L1964.23 1165.85C1964.19 1166.14 1964.19 1166.43 1964.23 1166.71 1964.23 1166.71 1964.23 1166.85 1964.23 1166.92 1964.28 1167.2 1964.36 1167.47 1964.47 1167.73 1964.47 1167.73 1964.47 1167.73 1964.47 1167.73 1964.47 1167.73 1964.64 1167.98 1964.71 1168.11 1964.82 1168.29 1964.93 1168.46 1965.06 1168.62L1965.06 1168.62C1965.15 1168.69 1965.24 1168.76 1965.34 1168.82 1965.48 1168.97 1965.65 1169.09 1965.82 1169.2 1965.95 1169.27 1966.09 1169.34 1966.23 1169.39L1966.75 1169.58 1967.2 1169.58 1967.58 1169.9 1967.83 1169.9 1968.05 1169.9C1968.37 1169.87 1968.68 1169.78 1968.97 1169.65L2016.9 1148.58 2064.76 1169.6C2065.2 1169.8 2065.67 1169.9 2066.15 1169.9L2066.15 1169.9C2066.43 1169.89 2066.72 1169.85 2066.99 1169.77L2067.24 1169.77C2067.45 1169.69 2067.67 1169.59 2067.88 1169.48L2068.03 1169.38C2068.26 1169.23 2068.47 1169.07 2068.65 1168.88L2068.65 1168.88C2068.79 1168.71 2068.91 1168.53 2069.02 1168.34 2069.09 1168.23 2069.16 1168.11 2069.22 1167.99 2069.22 1167.99 2069.22 1167.99 2069.22 1167.99 2069.34 1167.73 2069.42 1167.45 2069.47 1167.16 2069.47 1167.16 2069.47 1167.04 2069.47 1166.97 2069.57 1166.64 2069.62 1166.29 2069.6 1165.94ZM2040.21 1123.49 2022.74 1111.67 2031.16 1105.92ZM2016.86 1078.04 2027.98 1099.67 2016.61 1107.51 2006.23 1100.59C2006.01 1100.43 2005.76 1100.31 2005.5 1100.21ZM2002.37 1106.25 2010.48 1111.73 1993.52 1123.36ZM1975.11 1159.37 1987.31 1135.57 2008.29 1144.79ZM1994.45 1131.16 2016.64 1115.89 2039.26 1131.2 2016.9 1141.02ZM2053.25 1157 2025.49 1144.81 2046.43 1135.61 2058.62 1159.35Z" fill="#7030A0"/></g></g></g><g clip-path="url(#clip7)"><g clip-path="url(#clip8)"><g clip-path="url(#clip9)"><path d="M68.75 60.1562 73.5625 55.3438C68.289 49.8771 68.289 41.2167 73.5625 35.75L68.75 30.9375C60.7279 39.0252 60.7279 52.0685 68.75 60.1562Z" fill="#7030A0" transform="matrix(1.00606 0 0 1 2358 938)"/><path d="M59.125 69.7812 63.9375 64.9688C53.2111 54.3104 53.156 36.9746 63.8143 26.2482 63.8552 26.207 63.8962 26.1659 63.9375 26.125L59.125 21.3125C45.7407 34.5077 45.5874 56.0545 58.7825 69.4387 58.8959 69.5537 59.01 69.6678 59.125 69.7812Z" fill="#7030A0" transform="matrix(1.00606 0 0 1 2358 938)"/><path d="M54.1406 74.7656C38.0963 58.5903 38.0963 32.5035 54.1406 16.3281L49.3281 11.5156C30.5332 30.3086 30.5317 60.7796 49.3247 79.5747 49.3259 79.5759 49.3269 79.5769 49.3281 79.5781Z" fill="#7030A0" transform="matrix(1.00606 0 0 1 2358 938)"/><path d="M97.9688 60.1562C105.991 52.0685 105.991 39.0252 97.9688 30.9375L93.1562 35.75C95.726 38.3589 97.1487 41.8851 97.1094 45.5469 97.1154 49.2021 95.6974 52.7161 93.1562 55.3438Z" fill="#7030A0" transform="matrix(1.00606 0 0 1 2358 938)"/><path d="M102.781 64.9688 107.594 69.7812C120.978 56.5861 121.131 35.0393 107.936 21.655 107.823 21.5401 107.709 21.4259 107.594 21.3125L102.781 26.125C113.508 36.7833 113.563 54.1191 102.904 64.8455 102.864 64.8868 102.823 64.9278 102.781 64.9688Z" fill="#7030A0" transform="matrix(1.00606 0 0 1 2358 938)"/><path d="M112.578 74.7656 117.391 79.5781C136.186 60.7851 136.187 30.3141 117.394 11.5191 117.393 11.5179 117.392 11.5168 117.391 11.5156L112.578 16.3281C128.622 32.5035 128.622 58.5903 112.578 74.7656Z" fill="#7030A0" transform="matrix(1.00606 0 0 1 2358 938)"/><path d="M135.781 149.033 135.781 149.033C135.728 148.728 135.63 148.432 135.489 148.156 135.489 148.156 135.489 148.156 135.489 148.053L86.5047 52.6625C86.3555 52.3829 86.1642 52.1278 85.9375 51.9062 89.4573 50.4824 91.1565 46.4747 89.7327 42.9548 88.3089 39.435 84.3011 37.7358 80.7812 39.1597 77.2614 40.5835 75.5623 44.5913 76.9861 48.1111 77.6847 49.8381 79.0543 51.2076 80.7812 51.9062 80.5977 52.1082 80.4416 52.3337 80.3172 52.5766L31.3328 147.967C31.3328 147.967 31.3328 147.967 31.3328 148.07 31.192 148.346 31.0936 148.642 31.0406 148.947L31.0406 148.947C30.9978 149.232 30.9978 149.521 31.0406 149.806 31.0406 149.806 31.0406 149.944 31.0406 150.012 31.0874 150.291 31.1682 150.562 31.2813 150.82 31.2813 150.82 31.2813 150.82 31.2813 150.82 31.2813 150.82 31.4531 151.061 31.5219 151.198 31.6265 151.371 31.7414 151.538 31.8656 151.697L31.8656 151.697C31.9531 151.771 32.0449 151.84 32.1406 151.903 32.2891 152.044 32.4502 152.17 32.6219 152.281 32.7561 152.351 32.8938 152.414 33.0344 152.47L33.55 152.659 33.9969 152.659 34.375 152.969 34.6156 152.969 34.8391 152.969C35.1539 152.939 35.4618 152.858 35.75 152.728L83.3938 131.777 130.969 152.677C131.4 152.873 131.87 152.973 132.344 152.969L132.344 152.969C132.628 152.964 132.911 152.923 133.186 152.848L133.427 152.848C133.645 152.766 133.857 152.668 134.062 152.556L134.217 152.453C134.442 152.311 134.65 152.144 134.836 151.955L134.836 151.955C134.97 151.787 135.091 151.609 135.197 151.422 135.272 151.311 135.341 151.196 135.403 151.078 135.403 151.078 135.403 151.078 135.403 151.078 135.519 150.815 135.6 150.538 135.644 150.253 135.644 150.253 135.644 150.133 135.644 150.064 135.752 149.731 135.798 149.382 135.781 149.033ZM106.562 106.838 89.2031 95.0984 97.5734 89.375ZM83.3594 61.6688 94.4109 83.1703 83.1016 90.9562 72.7891 84.0812C72.5653 83.9252 72.3228 83.7982 72.0672 83.7031ZM68.9562 89.7016 77.0172 95.15 60.1562 106.717ZM41.8516 142.502 53.9859 118.852 74.8344 128.013ZM61.0844 114.469 83.1359 99.2922 105.617 114.503 83.3938 124.266ZM119.522 140.147 91.9359 128.03 112.75 118.886 124.867 142.484Z" fill="#7030A0" transform="matrix(1.00606 0 0 1 2358 938)"/></g></g></g><text fill="#7030A0" font-family="Calibri,Calibri_MSFontService,sans-serif" font-weight="400" font-size="83" transform="matrix(1 0 0 1 980.277 1149)">Access Point</text><g clip-path="url(#clip10)"><g clip-path="url(#clip11)"><g clip-path="url(#clip12)"><path d="M86.7734 68.875C82.2688 68.875 78.6172 65.2233 78.6172 60.7187 78.6172 56.2141 82.2688 52.5625 86.7734 52.5625 91.278 52.5625 94.9296 56.2141 94.9296 60.7187 94.9296 65.2233 91.278 68.875 86.7734 68.875ZM86.7734 41.6875C76.2627 41.6909 67.7451 50.2144 67.7485 60.7251 67.7494 63.0953 68.1927 65.4443 69.0562 67.6515L77.7018 86.6828 85.1331 102.27C85.5694 103.171 86.6534 103.548 87.5544 103.111 87.9214 102.934 88.2178 102.637 88.3956 102.27L95.8268 86.6828 104.472 67.6515C108.301 57.8631 103.47 46.8241 93.6817 42.9952 91.4801 42.1339 89.1374 41.6906 86.7734 41.6875Z" transform="matrix(1 0 0 1.00575 2524 1380)"/><path d="M126.875 3.625 47.125 3.625C43.1259 3.63694 39.8869 6.8759 39.875 10.875L39.875 163.125C39.8869 167.124 43.1259 170.363 47.125 170.375L126.875 170.375C130.874 170.363 134.113 167.124 134.125 163.125L134.125 10.875C134.113 6.8759 130.874 3.63694 126.875 3.625ZM80.6562 10.875 93.3437 10.875C94.8452 10.875 96.0625 12.0922 96.0625 13.5937 96.0625 15.0953 94.8452 16.3125 93.3437 16.3125L80.6562 16.3125C79.1547 16.3125 77.9375 15.0953 77.9375 13.5937 77.9375 12.0922 79.1547 10.875 80.6562 10.875ZM126.875 150.437 47.125 150.437 47.125 23.5625 126.875 23.5625Z" transform="matrix(1 0 0 1.00575 2524 1380)"/><path d="M59.8125 112.375 114.187 112.375 114.187 117.812 59.8125 117.812Z" transform="matrix(1 0 0 1.00575 2524 1380)"/><path d="M59.8125 125.062 114.187 125.062 114.187 130.5 59.8125 130.5Z" transform="matrix(1 0 0 1.00575 2524 1380)"/></g></g></g><g clip-path="url(#clip13)"><g clip-path="url(#clip14)"><g clip-path="url(#clip15)"><path d="M1383.17 1554.96 1292.17 1554.96 1292.17 1494.29 1383.17 1494.29 1383.17 1554.96ZM1386.96 1482.92 1288.38 1482.92C1284.2 1482.92 1280.79 1486.33 1280.79 1490.5L1280.79 1558.75C1280.79 1562.92 1284.2 1566.33 1288.38 1566.33L1326.29 1566.33 1326.29 1577.71 1309.23 1577.71 1309.23 1589.08 1366.1 1589.08 1366.1 1577.71 1349.04 1577.71 1349.04 1566.33 1386.96 1566.33C1391.13 1566.33 1394.54 1562.92 1394.54 1558.75L1394.54 1490.5C1394.54 1486.33 1391.13 1482.92 1386.96 1482.92Z"/><path d="M1447.62 1501.88 1409.71 1501.88 1409.71 1490.5 1447.62 1490.5 1447.62 1501.88ZM1447.62 1520.83 1409.71 1520.83 1409.71 1509.46 1447.62 1509.46 1447.62 1520.83ZM1428.67 1577.71C1425.44 1577.71 1422.98 1575.24 1422.98 1572.02 1422.98 1568.8 1425.44 1566.33 1428.67 1566.33 1431.89 1566.33 1434.35 1568.8 1434.35 1572.02 1434.35 1575.24 1431.89 1577.71 1428.67 1577.71ZM1447.62 1482.92 1409.71 1482.92C1405.54 1482.92 1402.12 1486.33 1402.12 1490.5L1402.12 1581.5C1402.12 1585.67 1405.54 1589.08 1409.71 1589.08L1447.62 1589.08C1451.8 1589.08 1455.21 1585.67 1455.21 1581.5L1455.21 1490.5C1455.21 1486.33 1451.8 1482.92 1447.62 1482.92Z"/></g></g></g><g clip-path="url(#clip16)"><g clip-path="url(#clip17)"><g clip-path="url(#clip18)"><path d="M126.667 99.9999 33.3333 99.9999 33.3333 43.3333 126.667 43.3333 126.667 99.9999ZM136.667 40C136.667 36.3333 133.667 33.3333 130 33.3333L30 33.3333C26.3333 33.3333 23.3333 36.3333 23.3333 40L23.3333 110 136.667 110 136.667 40Z" transform="matrix(1 0 0 1 1668 1464)"/><path d="M89.9999 116.667 89.9999 118.333C89.9999 119.333 89.3332 120 88.3332 120L71.6666 120C70.6666 120 69.9999 119.333 69.9999 118.333L69.9999 116.667 3.33333 116.667 3.33333 120C3.33333 123.667 6.33333 126.667 9.99999 126.667L150 126.667C153.667 126.667 156.667 123.667 156.667 120L156.667 116.667 89.9999 116.667Z" transform="matrix(1 0 0 1 1668 1464)"/></g></g></g><g clip-path="url(#clip19)"><g clip-path="url(#clip20)"><g clip-path="url(#clip21)"><path d="M138.235 154.5 67.4221 154.5C58.5338 154.5 51.3283 161.705 51.3283 170.594 51.3283 179.482 58.5338 186.687 67.4221 186.687L138.235 186.687C147.123 186.687 154.328 179.482 154.328 170.594 154.328 161.705 147.123 154.5 138.235 154.5ZM71.7137 177.031C68.1583 177.031 65.2762 174.149 65.2762 170.594 65.2762 167.038 68.1583 164.156 71.7137 164.156 75.2691 164.156 78.1512 167.038 78.1512 170.594 78.1512 174.149 75.2691 177.031 71.7137 177.031ZM102.828 177.031C99.2729 177.031 96.3908 174.149 96.3908 170.594 96.3908 167.038 99.2729 164.156 102.828 164.156 106.384 164.156 109.266 167.038 109.266 170.594 109.266 174.149 106.384 177.031 102.828 177.031ZM133.943 177.031C130.387 177.031 127.505 174.149 127.505 170.594 127.505 167.038 130.387 164.156 133.943 164.156 137.498 164.156 140.38 167.038 140.38 170.594 140.38 174.149 137.498 177.031 133.943 177.031Z" transform="matrix(1 0 0 1 2125 1427)"/><path d="M117.656 60.0833C117.656 61.861 116.215 63.3021 114.437 63.3021 112.66 63.3021 111.218 61.861 111.218 60.0833 111.218 58.3056 112.66 56.8646 114.437 56.8646 116.215 56.8646 117.656 58.3056 117.656 60.0833Z" transform="matrix(1 0 0 1 2125 1427)"/><path d="M121.476 38.625 107.292 38.625 107.292 28.8614C111.397 26.4912 112.804 21.2417 110.433 17.1364 108.063 13.0311 102.814 11.6245 98.7083 13.9947 94.6029 16.3649 93.1963 21.6143 95.5666 25.7197 96.32 27.0246 97.4034 28.108 98.7083 28.8614L98.7083 38.625 84.5243 38.625C79.3267 38.6368 75.1159 42.8475 75.1041 48.0452L75.1041 72.1214C75.1159 77.3191 79.3267 81.5298 84.5243 81.5416L121.476 81.5416C126.673 81.5298 130.884 77.3191 130.896 72.1214L130.896 48.0452C130.884 42.8475 126.673 38.6368 121.476 38.625ZM92.2708 66.5208C88.7154 66.5208 85.8333 63.6387 85.8333 60.0833 85.8333 56.5279 88.7154 53.6458 92.2708 53.6458 95.8262 53.6458 98.7083 56.5279 98.7083 60.0833 98.7083 63.6387 95.8262 66.5208 92.2708 66.5208ZM113.729 66.5208C110.174 66.5208 107.292 63.6387 107.292 60.0833 107.292 56.5279 110.174 53.6458 113.729 53.6458 117.285 53.6458 120.167 56.5279 120.167 60.0833 120.167 63.6387 117.285 66.5208 113.729 66.5208Z" transform="matrix(1 0 0 1 2125 1427)"/><path d="M96.1977 60.0833C96.1977 61.861 94.7566 63.3021 92.9789 63.3021 91.2013 63.3021 89.7602 61.861 89.7602 60.0833 89.7602 58.3056 91.2013 56.8646 92.9789 56.8646 94.7566 56.8646 96.1977 58.3056 96.1977 60.0833Z" transform="matrix(1 0 0 1 2125 1427)"/><path d="M158.792 126.218 158.792 108.343C158.792 103.022 154.478 98.7083 149.157 98.7083L137.333 98.7083 137.333 87.9791 68.6666 87.9791 68.6666 100.854 52.5514 100.854C51.9708 100.854 51.5 100.383 51.5 99.8027L51.5 82.0137C58.8765 79.8353 63.0903 72.0895 60.9118 64.7132 60.3277 62.7356 59.3119 60.9125 57.9375 59.3752L51.5 65.0831C52.4004 66.0622 52.9117 67.3366 52.9377 68.6666 52.9216 71.6294 50.5067 74.0181 47.5439 74.002 44.5812 73.9857 42.1926 71.571 42.2087 68.6083 42.2156 67.3285 42.6797 66.0936 43.5175 65.126L37.08 59.4825C32.0225 65.293 32.633 74.1031 38.4434 79.1606 39.758 80.3048 41.2751 81.1925 42.9166 81.7777L42.9166 99.8027C42.9166 105.124 47.2302 109.437 52.5514 109.437L68.6666 109.437 68.6666 148.062 137.333 148.062 137.333 107.292 149.157 107.292C149.737 107.292 150.208 107.762 150.208 108.343L150.208 126.218C142.879 128.589 138.86 136.452 141.231 143.782 141.824 145.616 142.791 147.307 144.071 148.749L150.509 143.041C149.621 142.068 149.131 140.797 149.135 139.479 149.138 136.516 151.542 134.116 154.504 134.119 157.467 134.122 159.867 136.525 159.865 139.488 159.863 140.788 159.391 142.043 158.534 143.02L164.972 148.663C170.049 142.886 169.481 134.086 163.704 129.009 162.274 127.753 160.602 126.803 158.792 126.218ZM128.75 118.021 122.785 118.021C122.577 118.058 122.38 118.138 122.205 118.257L115.639 124.973 110.639 113.128 101.305 132.441 94.76 107.292 89.7173 118.021 79.3958 118.021 79.3958 113.729 86.992 113.729 95.9187 94.7385 102.528 120.016 110.918 102.85 117.098 117.484 119.244 115.338C120.186 114.385 121.447 113.812 122.785 113.729L128.75 113.729Z" transform="matrix(1 0 0 1 2125 1427)"/></g></g></g><g clip-path="url(#clip22)"><g clip-path="url(#clip23)"><g clip-path="url(#clip24)"><path d="M1575.83 1423.75 1510.86 1423.75C1502.7 1423.75 1496.09 1430.36 1496.09 1438.52 1496.09 1446.67 1502.7 1453.28 1510.86 1453.28L1575.83 1453.28C1583.98 1453.28 1590.59 1446.67 1590.59 1438.52 1590.59 1430.36 1583.98 1423.75 1575.83 1423.75ZM1514.8 1444.42C1511.53 1444.42 1508.89 1441.78 1508.89 1438.52 1508.89 1435.25 1511.53 1432.61 1514.8 1432.61 1518.06 1432.61 1520.7 1435.25 1520.7 1438.52 1520.7 1441.78 1518.06 1444.42 1514.8 1444.42ZM1543.34 1444.42C1540.08 1444.42 1537.44 1441.78 1537.44 1438.52 1537.44 1435.25 1540.08 1432.61 1543.34 1432.61 1546.6 1432.61 1549.25 1435.25 1549.25 1438.52 1549.25 1441.78 1546.6 1444.42 1543.34 1444.42ZM1571.89 1444.42C1568.63 1444.42 1565.98 1441.78 1565.98 1438.52 1565.98 1435.25 1568.63 1432.61 1571.89 1432.61 1575.15 1432.61 1577.8 1435.25 1577.8 1438.52 1577.8 1441.78 1575.15 1444.42 1571.89 1444.42Z"/><path d="M1556.95 1337.12C1556.95 1338.76 1555.62 1340.08 1553.99 1340.08 1552.36 1340.08 1551.04 1338.76 1551.04 1337.12 1551.04 1335.49 1552.36 1334.17 1553.99 1334.17 1555.62 1334.17 1556.95 1335.49 1556.95 1337.12Z"/><path d="M1560.45 1317.44 1547.44 1317.44 1547.44 1308.48C1551.2 1306.3 1552.49 1301.49 1550.32 1297.72 1548.15 1293.96 1543.33 1292.67 1539.56 1294.84 1535.8 1297.01 1534.51 1301.83 1536.68 1305.6 1537.37 1306.79 1538.37 1307.79 1539.56 1308.48L1539.56 1317.44 1526.55 1317.44C1521.78 1317.45 1517.92 1321.31 1517.91 1326.08L1517.91 1348.17C1517.92 1352.94 1521.78 1356.8 1526.55 1356.81L1560.45 1356.81C1565.22 1356.8 1569.08 1352.94 1569.09 1348.17L1569.09 1326.08C1569.08 1321.31 1565.22 1317.45 1560.45 1317.44ZM1533.66 1343.03C1530.39 1343.03 1527.75 1340.39 1527.75 1337.12 1527.75 1333.86 1530.39 1331.22 1533.66 1331.22 1536.92 1331.22 1539.56 1333.86 1539.56 1337.12 1539.56 1340.39 1536.92 1343.03 1533.66 1343.03ZM1553.34 1343.03C1550.08 1343.03 1547.44 1340.39 1547.44 1337.12 1547.44 1333.86 1550.08 1331.22 1553.34 1331.22 1556.61 1331.22 1559.25 1333.86 1559.25 1337.12 1559.25 1340.39 1556.61 1343.03 1553.34 1343.03Z"/><path d="M1537.26 1337.12C1537.26 1338.76 1535.94 1340.08 1534.31 1340.08 1532.67 1340.08 1531.35 1338.76 1531.35 1337.12 1531.35 1335.49 1532.67 1334.17 1534.31 1334.17 1535.94 1334.17 1537.26 1335.49 1537.26 1337.12Z"/><path d="M1594.69 1397.8 1594.69 1381.4C1594.69 1376.52 1590.73 1372.56 1585.85 1372.56L1575 1372.56 1575 1362.72 1512 1362.72 1512 1374.53 1497.21 1374.53C1496.68 1374.53 1496.25 1374.1 1496.25 1373.57L1496.25 1357.25C1503.02 1355.25 1506.88 1348.14 1504.89 1341.37 1504.35 1339.56 1503.42 1337.89 1502.16 1336.48L1496.25 1341.71C1497.08 1342.61 1497.55 1343.78 1497.57 1345 1497.55 1347.72 1495.34 1349.91 1492.62 1349.9 1489.9 1349.88 1487.71 1347.66 1487.73 1344.95 1487.73 1343.77 1488.16 1342.64 1488.93 1341.75L1483.02 1336.57C1478.38 1341.9 1478.94 1349.99 1484.27 1354.63 1485.48 1355.68 1486.87 1356.49 1488.37 1357.03L1488.37 1373.57C1488.37 1378.45 1492.33 1382.41 1497.21 1382.41L1512 1382.41 1512 1417.84 1575 1417.84 1575 1380.44 1585.85 1380.44C1586.38 1380.44 1586.81 1380.87 1586.81 1381.4L1586.81 1397.8C1580.09 1399.98 1576.4 1407.19 1578.58 1413.92 1579.12 1415.6 1580.01 1417.15 1581.18 1418.47L1587.09 1413.24C1586.27 1412.34 1585.82 1411.18 1585.83 1409.97 1585.83 1407.25 1588.04 1405.05 1590.75 1405.05 1593.47 1405.05 1595.67 1407.26 1595.67 1409.98 1595.67 1411.17 1595.24 1412.32 1594.45 1413.22L1600.36 1418.39C1605.02 1413.09 1604.49 1405.02 1599.19 1400.36 1597.88 1399.21 1596.35 1398.34 1594.69 1397.8ZM1567.12 1390.28 1561.65 1390.28C1561.46 1390.32 1561.28 1390.39 1561.12 1390.5L1555.1 1396.66 1550.51 1385.79 1541.94 1403.51 1535.94 1380.44 1531.31 1390.28 1521.84 1390.28 1521.84 1386.34 1528.81 1386.34 1537 1368.92 1543.07 1392.11 1550.76 1376.36 1556.43 1389.79 1558.4 1387.82C1559.27 1386.95 1560.42 1386.42 1561.65 1386.34L1567.12 1386.34Z"/></g></g></g><g clip-path="url(#clip25)"><g clip-path="url(#clip26)"><g clip-path="url(#clip27)"><path d="M201.594 81.7568C201.458 79.7764 200.017 78.1305 198.072 77.7332L174.721 72.9655C173.269 72.6647 171.763 73.1174 170.717 74.169L166 78.8838 134.642 47.5255C134.263 53.9508 130.795 59.7945 125.336 63.2046L153.508 91.3763 148.952 95.9343C147.917 96.9693 147.462 98.4498 147.737 99.8872L152.253 123.481C152.631 125.453 154.293 126.922 156.297 127.056L179.718 128.618C179.818 128.618 179.917 128.629 180.016 128.629 182.456 128.709 184.498 126.796 184.578 124.357 184.658 121.917 182.745 119.875 180.306 119.795L160.285 118.47 156.851 100.528 175.284 82.0947 193.008 85.7053 194.346 105.766C194.509 108.201 196.615 110.044 199.05 109.882 201.486 109.72 203.329 107.614 203.166 105.178Z" transform="matrix(1 0 0 1 1896 1243)"/><path d="M94.8279 112.495C94.8297 105.396 92.7998 98.4449 88.9781 92.4628L73.3961 111.079C65.3332 120.744 50.9619 122.043 41.2969 113.98 31.6321 105.917 30.3334 91.5455 38.3962 81.8807 39.2736 80.8289 40.2442 79.8583 41.2958 78.9809L41.8699 78.4995C28.5566 84.5751 20.0128 97.8604 20.0075 112.495L20.0075 154.583 94.8279 154.583Z" transform="matrix(1 0 0 1 1896 1243)"/><path d="M94.9582 46.3749C94.9582 45.0307 95.0942 43.6901 95.3645 42.3734L45.5424 84.0601C38.6992 89.7938 37.8 99.9892 43.5337 106.832 49.2672 113.676 59.4628 114.575 66.306 108.841 67.0332 108.232 67.7054 107.56 68.3147 106.832L104.648 63.41C98.6486 59.8296 94.9695 53.3619 94.9582 46.3749ZM61.6632 96.959C59.9387 98.6841 57.1421 98.6846 55.4172 96.9598 53.692 95.2354 53.6916 92.4389 55.4161 90.7138 57.1408 88.9887 59.9372 88.9882 61.6623 90.7129 61.6626 90.7132 61.663 90.7136 61.6632 90.7138 63.3875 92.4385 63.3875 95.2343 61.6632 96.959Z" transform="matrix(1 0 0 1 1896 1243)"/><path d="M94.9582 163.416 19.875 163.416C14.9965 163.416 11.0417 167.371 11.0417 172.25L11.0417 181.083 103.792 181.083 103.792 172.25C103.792 167.371 99.8366 163.416 94.9582 163.416Z" transform="matrix(1 0 0 1 1896 1243)"/><path d="M114.833 33.125C107.515 33.125 101.583 39.0572 101.583 46.3749 101.583 53.6927 107.515 59.6249 114.833 59.6249 122.151 59.6249 128.083 53.6927 128.083 46.3749 128.083 39.0572 122.151 33.125 114.833 33.125ZM114.833 49.6874C113.004 49.6874 111.521 48.2043 111.521 46.3749 111.521 44.5456 113.004 43.0624 114.833 43.0624 116.663 43.0624 118.146 44.5456 118.146 46.3749 118.146 48.2043 116.663 49.6874 114.833 49.6874Z" transform="matrix(1 0 0 1 1896 1243)"/></g></g></g><g clip-path="url(#clip28)"><g clip-path="url(#clip29)"><g clip-path="url(#clip30)"><path d="M78.5884 84.3582 84.1593 78.7874C81.3739 75.803 79.5832 71.8239 79.5832 67.4468 79.5832 63.0697 81.3739 59.0906 84.1593 56.1062L78.5884 50.5354C74.2114 54.9124 71.6249 60.8812 71.6249 67.4468 71.6249 74.0124 74.2114 79.9812 78.5884 84.3582Z" transform="matrix(1.00524 0 0 1 2332 1214)"/><path d="M67.4468 95.4999 73.0176 89.9291C67.2478 84.1593 63.6666 76.201 63.6666 67.4468 63.6666 58.6926 67.2478 50.7343 73.0176 44.9645L67.4468 39.3937C60.0853 46.5562 55.7083 56.5041 55.7083 67.4468 55.7083 78.3895 60.0853 88.3374 67.4468 95.4999Z" transform="matrix(1.00524 0 0 1 2332 1214)"/><path d="M61.677 101.27C53.1218 92.7145 47.7499 80.777 47.7499 67.4468 47.7499 54.1166 53.1218 42.3781 61.677 33.6239L56.1062 28.0531C45.9593 38.2 39.7916 52.127 39.7916 67.4468 39.7916 82.7666 45.9593 96.6936 56.1062 106.84L61.677 101.27Z" transform="matrix(1.00524 0 0 1 2332 1214)"/><path d="M112.411 84.3582C116.788 79.9812 119.375 74.0124 119.375 67.4468 119.375 60.8812 116.788 54.9124 112.411 50.5354L106.84 56.1062C109.626 58.8916 111.417 62.8708 111.417 67.4468 111.417 72.0228 109.626 75.803 106.84 78.7874L112.411 84.3582Z" transform="matrix(1.00524 0 0 1 2332 1214)"/><path d="M117.982 89.9291 123.553 95.4999C130.914 88.3374 135.292 78.3895 135.292 67.4468 135.292 56.5041 130.914 46.5562 123.553 39.3937L117.982 44.9645C123.752 50.7343 127.333 58.6926 127.333 67.4468 127.333 76.201 123.752 84.1593 117.982 89.9291Z" transform="matrix(1.00524 0 0 1 2332 1214)"/><path d="M129.323 101.27 134.894 106.84C145.04 96.6936 151.208 82.7666 151.208 67.4468 151.208 52.127 145.04 38.2 134.894 28.0531L129.323 33.6239C137.878 42.1791 143.25 54.1166 143.25 67.4468 143.25 80.777 137.878 92.5155 129.323 101.27Z" transform="matrix(1.00524 0 0 1 2332 1214)"/><path d="M147.229 147.03C145.04 147.03 143.25 145.239 143.25 143.051 143.25 140.862 145.04 139.072 147.229 139.072 149.418 139.072 151.208 140.862 151.208 143.051 151.208 145.239 149.418 147.03 147.229 147.03ZM127.333 147.03C125.145 147.03 123.354 145.239 123.354 143.051 123.354 140.862 125.145 139.072 127.333 139.072 129.522 139.072 131.312 140.862 131.312 143.051 131.312 145.239 129.522 147.03 127.333 147.03ZM107.437 147.03C105.249 147.03 103.458 145.239 103.458 143.051 103.458 140.862 105.249 139.072 107.437 139.072 109.626 139.072 111.417 140.862 111.417 143.051 111.417 145.239 109.626 147.03 107.437 147.03ZM87.5416 147.03C85.353 147.03 83.5624 145.239 83.5624 143.051 83.5624 140.862 85.353 139.072 87.5416 139.072 89.7301 139.072 91.5207 140.862 91.5207 143.051 91.5207 145.239 89.7301 147.03 87.5416 147.03ZM47.7499 151.009C43.3729 151.009 39.7916 147.428 39.7916 143.051 39.7916 138.674 43.3729 135.093 47.7499 135.093 52.127 135.093 55.7083 138.674 55.7083 143.051 55.7083 147.428 52.127 151.009 47.7499 151.009ZM155.187 123.155 99.479 123.155 99.479 74.2114C101.867 72.8187 103.458 70.2322 103.458 67.4468 103.458 63.0697 99.877 59.4885 95.4999 59.4885 91.1228 59.4885 87.5416 63.0697 87.5416 67.4468 87.5416 70.4312 89.1332 73.0176 91.5207 74.2114L91.5207 123.155 35.8125 123.155C31.4354 123.155 27.8541 126.736 27.8541 131.113L27.8541 154.988C27.8541 159.365 31.4354 162.947 35.8125 162.947L155.187 162.947C159.564 162.947 163.146 159.365 163.146 154.988L163.146 131.113C163.146 126.736 159.564 123.155 155.187 123.155Z" transform="matrix(1.00524 0 0 1 2332 1214)"/></g></g></g><text fill="#ED7D31" font-family="Calibri,Calibri_MSFontService,sans-serif" font-weight="400" font-size="83" transform="matrix(1 0 0 1 948.887 1483)">End </text><text fill="#ED7D31" font-family="Calibri,Calibri_MSFontService,sans-serif" font-weight="400" font-size="83" transform="matrix(1 0 0 1 900.395 1582)">Device</text><text fill="#7030A0" font-family="Calibri,Calibri_MSFontService,sans-serif" font-weight="400" font-size="64" transform="matrix(0.66457 0.747226 -0.747226 0.66457 2531.73 1164)">Coverage Area</text><path d="M1209.58 877.586 1410.96 1028.66 1405.46 1035.99 1204.08 884.919ZM1202.25 895.002 1188.5 867.5 1218.75 873.004ZM1412.8 1018.58 1426.54 1046.08 1396.3 1040.57Z" fill="#4472C4"/><path d="M17.8126 15.129 231.942 285.804 224.753 291.491 10.6235 20.8162ZM6.27813 30.0981 0 0 27.8454 13.0364ZM236.288 276.522 242.566 306.62 214.721 293.584Z" fill="#4472C4" transform="matrix(-1 0 0 1 1823.07 707.5)"/><path d="M1938.26 739.693 2021.87 983.671 2013.2 986.642 1929.59 742.665ZM1922.41 749.972 1926.5 719.5 1948.42 741.057ZM2029.06 976.363 2024.97 1006.84 2003.04 985.278Z" fill="#4472C4"/><path d="M21.666 8.76122 171.086 107.013 166.05 114.673 16.6297 16.4204ZM15.423 26.5978 0 0 30.532 3.62028ZM172.293 96.836 187.716 123.434 157.184 119.814Z" fill="#4472C4" transform="matrix(-1 0 0 1 2802.22 850.5)"/><path d="M2065.17 719.261 2359.82 913.016 2354.79 920.675 2060.13 726.92ZM2058.92 737.098 2043.5 710.5 2074.03 714.12ZM2361.03 902.839 2376.45 929.437 2345.92 925.816Z" fill="#4472C4"/><text fill="#4472C4" font-family="Calibri,Calibri_MSFontService,sans-serif" font-weight="700" font-size="55" transform="matrix(0.617772 -0.786357 0.786357 0.617772 1573.86 975)">Backhaul N/w</text><text fill="#7030A0" font-family="Calibri,Calibri_MSFontService,sans-serif" font-weight="700" font-size="55" transform="matrix(0.705444 -0.708766 0.708766 0.705444 1200.02 1477)">Wireless N/w</text><g clip-path="url(#clip31)"><g clip-path="url(#clip32)"><g clip-path="url(#clip33)"><path d="M1006.69 829.313 1027.31 829.313 1027.31 856.813 1006.69 856.813Z"/><path d="M1006.69 870.563 1027.31 870.563 1027.31 891.188 1006.69 891.188Z"/><path d="M1041.06 870.563 1140.75 870.563 1140.75 891.188 1041.06 891.188Z"/><path d="M893.25 870.563 992.938 870.563 992.938 891.188 893.25 891.188Z"/><path d="M1114.69 774.313 919.306 774.313C912.51 774.313 907 779.822 907 786.619L907 817.006C907 823.803 912.51 829.313 919.306 829.313L1114.69 829.313C1121.49 829.313 1127 823.803 1127 817.006L1127 786.619C1127 779.822 1121.49 774.313 1114.69 774.313ZM941.375 808.688C937.578 808.688 934.5 805.61 934.5 801.813 934.5 798.016 937.578 794.938 941.375 794.938 945.172 794.938 948.25 798.016 948.25 801.813 948.25 805.61 945.172 808.688 941.375 808.688ZM975.75 808.688C971.953 808.688 968.875 805.61 968.875 801.813 968.875 798.016 971.953 794.938 975.75 794.938 979.547 794.938 982.625 798.016 982.625 801.813 982.625 805.61 979.547 808.688 975.75 808.688ZM1010.13 808.688C1006.33 808.688 1003.25 805.61 1003.25 801.813 1003.25 798.016 1006.33 794.938 1010.13 794.938 1013.92 794.938 1017 798.016 1017 801.813 1017 805.61 1013.92 808.688 1010.13 808.688Z"/><path d="M1114.69 705.563 919.306 705.563C912.51 705.563 907 711.072 907 717.869L907 748.256C907 755.053 912.51 760.563 919.306 760.563L1114.69 760.563C1121.49 760.563 1127 755.053 1127 748.256L1127 717.869C1127 711.072 1121.49 705.563 1114.69 705.563ZM941.375 739.938C937.578 739.938 934.5 736.86 934.5 733.063 934.5 729.266 937.578 726.188 941.375 726.188 945.172 726.188 948.25 729.266 948.25 733.063 948.25 736.86 945.172 739.938 941.375 739.938ZM975.75 739.938C971.953 739.938 968.875 736.86 968.875 733.063 968.875 729.266 971.953 726.188 975.75 726.188 979.547 726.188 982.625 729.266 982.625 733.063 982.625 736.86 979.547 739.938 975.75 739.938ZM1010.13 739.938C1006.33 739.938 1003.25 736.86 1003.25 733.063 1003.25 729.266 1006.33 726.188 1010.13 726.188 1013.92 726.188 1017 729.266 1017 733.063 1017 736.86 1013.92 739.938 1010.13 739.938Z"/><path d="M1114.69 636.813 919.306 636.813C912.51 636.813 907 642.322 907 649.119L907 679.506C907 686.303 912.51 691.813 919.306 691.813L1114.69 691.813C1121.49 691.813 1127 686.303 1127 679.506L1127 649.119C1127 642.322 1121.49 636.813 1114.69 636.813ZM941.375 671.188C937.578 671.188 934.5 668.11 934.5 664.313 934.5 660.516 937.578 657.438 941.375 657.438 945.172 657.438 948.25 660.516 948.25 664.313 948.25 668.11 945.172 671.188 941.375 671.188ZM975.75 671.188C971.953 671.188 968.875 668.11 968.875 664.313 968.875 660.516 971.953 657.438 975.75 657.438 979.547 657.438 982.625 660.516 982.625 664.313 982.625 668.11 979.547 671.188 975.75 671.188ZM1010.13 671.188C1006.33 671.188 1003.25 668.11 1003.25 664.313 1003.25 660.516 1006.33 657.438 1010.13 657.438 1013.92 657.438 1017 660.516 1017 664.313 1017 668.11 1013.92 671.188 1010.13 671.188Z"/></g></g></g><g clip-path="url(#clip34)"><g clip-path="url(#clip35)"><g clip-path="url(#clip36)"><path d="M1911.69 594.312 1932.31 594.312 1932.31 621.812 1911.69 621.812Z"/><path d="M1911.69 635.562 1932.31 635.562 1932.31 656.188 1911.69 656.188Z"/><path d="M1946.06 635.562 2045.75 635.562 2045.75 656.188 1946.06 656.188Z"/><path d="M1798.25 635.562 1897.94 635.562 1897.94 656.188 1798.25 656.188Z"/><path d="M2019.69 539.312 1824.31 539.312C1817.51 539.312 1812 544.822 1812 551.619L1812 582.006C1812 588.803 1817.51 594.312 1824.31 594.312L2019.69 594.312C2026.49 594.312 2032 588.803 2032 582.006L2032 551.619C2032 544.822 2026.49 539.312 2019.69 539.312ZM1846.37 573.688C1842.58 573.688 1839.5 570.61 1839.5 566.812 1839.5 563.016 1842.58 559.938 1846.37 559.938 1850.17 559.938 1853.25 563.016 1853.25 566.812 1853.25 570.61 1850.17 573.688 1846.37 573.688ZM1880.75 573.688C1876.95 573.688 1873.87 570.61 1873.87 566.812 1873.87 563.016 1876.95 559.938 1880.75 559.938 1884.55 559.938 1887.62 563.016 1887.62 566.812 1887.62 570.61 1884.55 573.688 1880.75 573.688ZM1915.12 573.688C1911.33 573.688 1908.25 570.61 1908.25 566.812 1908.25 563.016 1911.33 559.938 1915.12 559.938 1918.92 559.938 1922 563.016 1922 566.812 1922 570.61 1918.92 573.688 1915.12 573.688Z"/><path d="M2019.69 470.563 1824.31 470.563C1817.51 470.563 1812 476.072 1812 482.869L1812 513.256C1812 520.053 1817.51 525.562 1824.31 525.562L2019.69 525.562C2026.49 525.562 2032 520.053 2032 513.256L2032 482.869C2032 476.072 2026.49 470.563 2019.69 470.563ZM1846.37 504.938C1842.58 504.938 1839.5 501.86 1839.5 498.063 1839.5 494.265 1842.58 491.188 1846.37 491.188 1850.17 491.188 1853.25 494.265 1853.25 498.063 1853.25 501.86 1850.17 504.938 1846.37 504.938ZM1880.75 504.938C1876.95 504.938 1873.87 501.86 1873.87 498.063 1873.87 494.265 1876.95 491.188 1880.75 491.188 1884.55 491.188 1887.62 494.265 1887.62 498.063 1887.62 501.86 1884.55 504.938 1880.75 504.938ZM1915.12 504.938C1911.33 504.938 1908.25 501.86 1908.25 498.063 1908.25 494.265 1911.33 491.188 1915.12 491.188 1918.92 491.188 1922 494.265 1922 498.063 1922 501.86 1918.92 504.938 1915.12 504.938Z"/><path d="M2019.69 401.813 1824.31 401.813C1817.51 401.813 1812 407.322 1812 414.119L1812 444.506C1812 451.303 1817.51 456.813 1824.31 456.813L2019.69 456.813C2026.49 456.813 2032 451.303 2032 444.506L2032 414.119C2032 407.322 2026.49 401.813 2019.69 401.813ZM1846.37 436.188C1842.58 436.188 1839.5 433.11 1839.5 429.313 1839.5 425.515 1842.58 422.438 1846.37 422.438 1850.17 422.438 1853.25 425.515 1853.25 429.313 1853.25 433.11 1850.17 436.188 1846.37 436.188ZM1880.75 436.188C1876.95 436.188 1873.87 433.11 1873.87 429.313 1873.87 425.515 1876.95 422.438 1880.75 422.438 1884.55 422.438 1887.62 425.515 1887.62 429.313 1887.62 433.11 1884.55 436.188 1880.75 436.188ZM1915.12 436.188C1911.33 436.188 1908.25 433.11 1908.25 429.313 1908.25 425.515 1911.33 422.438 1915.12 422.438 1918.92 422.438 1922 425.515 1922 429.313 1922 433.11 1918.92 436.188 1915.12 436.188Z"/></g></g></g><g clip-path="url(#clip37)"><g clip-path="url(#clip38)"><g clip-path="url(#clip39)"><path d="M2967.69 799.312 2988.31 799.312 2988.31 826.812 2967.69 826.812Z"/><path d="M2967.69 840.562 2988.31 840.562 2988.31 861.187 2967.69 861.187Z"/><path d="M3002.06 840.562 3101.75 840.562 3101.75 861.187 3002.06 861.187Z"/><path d="M2854.25 840.562 2953.94 840.562 2953.94 861.187 2854.25 861.187Z"/><path d="M3075.69 744.312 2880.31 744.312C2873.51 744.312 2868 749.822 2868 756.619L2868 787.006C2868 793.803 2873.51 799.312 2880.31 799.312L3075.69 799.312C3082.49 799.312 3088 793.803 3088 787.006L3088 756.619C3088 749.822 3082.49 744.312 3075.69 744.312ZM2902.38 778.687C2898.58 778.687 2895.5 775.609 2895.5 771.812 2895.5 768.015 2898.58 764.937 2902.38 764.937 2906.17 764.937 2909.25 768.015 2909.25 771.812 2909.25 775.609 2906.17 778.687 2902.38 778.687ZM2936.75 778.687C2932.95 778.687 2929.88 775.609 2929.88 771.812 2929.88 768.015 2932.95 764.937 2936.75 764.937 2940.55 764.937 2943.62 768.015 2943.62 771.812 2943.62 775.609 2940.55 778.687 2936.75 778.687ZM2971.12 778.687C2967.33 778.687 2964.25 775.609 2964.25 771.812 2964.25 768.015 2967.33 764.937 2971.12 764.937 2974.92 764.937 2978 768.015 2978 771.812 2978 775.609 2974.92 778.687 2971.12 778.687Z"/><path d="M3075.69 675.562 2880.31 675.562C2873.51 675.562 2868 681.072 2868 687.869L2868 718.256C2868 725.053 2873.51 730.562 2880.31 730.562L3075.69 730.562C3082.49 730.562 3088 725.053 3088 718.256L3088 687.869C3088 681.072 3082.49 675.562 3075.69 675.562ZM2902.38 709.937C2898.58 709.937 2895.5 706.859 2895.5 703.062 2895.5 699.265 2898.58 696.187 2902.38 696.187 2906.17 696.187 2909.25 699.265 2909.25 703.062 2909.25 706.859 2906.17 709.937 2902.38 709.937ZM2936.75 709.937C2932.95 709.937 2929.88 706.859 2929.88 703.062 2929.88 699.265 2932.95 696.187 2936.75 696.187 2940.55 696.187 2943.62 699.265 2943.62 703.062 2943.62 706.859 2940.55 709.937 2936.75 709.937ZM2971.12 709.937C2967.33 709.937 2964.25 706.859 2964.25 703.062 2964.25 699.265 2967.33 696.187 2971.12 696.187 2974.92 696.187 2978 699.265 2978 703.062 2978 706.859 2974.92 709.937 2971.12 709.937Z"/><path d="M3075.69 606.812 2880.31 606.812C2873.51 606.812 2868 612.322 2868 619.119L2868 649.506C2868 656.303 2873.51 661.812 2880.31 661.812L3075.69 661.812C3082.49 661.812 3088 656.303 3088 649.506L3088 619.119C3088 612.322 3082.49 606.812 3075.69 606.812ZM2902.38 641.187C2898.58 641.187 2895.5 638.109 2895.5 634.312 2895.5 630.515 2898.58 627.437 2902.38 627.437 2906.17 627.437 2909.25 630.515 2909.25 634.312 2909.25 638.109 2906.17 641.187 2902.38 641.187ZM2936.75 641.187C2932.95 641.187 2929.88 638.109 2929.88 634.312 2929.88 630.515 2932.95 627.437 2936.75 627.437 2940.55 627.437 2943.62 630.515 2943.62 634.312 2943.62 638.109 2940.55 641.187 2936.75 641.187ZM2971.12 641.187C2967.33 641.187 2964.25 638.109 2964.25 634.312 2964.25 630.515 2967.33 627.437 2971.12 627.437 2974.92 627.437 2978 630.515 2978 634.312 2978 638.109 2974.92 641.187 2971.12 641.187Z"/></g></g></g><g clip-path="url(#clip40)"><g clip-path="url(#clip41)"><g clip-path="url(#clip42)"><path d="M58.1249 86.5415 65.8749 86.5415 65.8749 96.8748 58.1249 96.8748Z" transform="matrix(1.00806 0 0 1 1576 1048)"/><path d="M58.1249 102.041 65.8749 102.041 65.8749 109.791 58.1249 109.791Z" transform="matrix(1.00806 0 0 1 1576 1048)"/><path d="M71.0415 102.041 108.5 102.041 108.5 109.791 71.0415 109.791Z" transform="matrix(1.00806 0 0 1 1576 1048)"/><path d="M15.5 102.041 52.9582 102.041 52.9582 109.791 15.5 109.791Z" transform="matrix(1.00806 0 0 1 1576 1048)"/><path d="M98.709 65.8749 25.2908 65.8749C22.7369 65.8749 20.6666 67.9451 20.6666 70.499L20.6666 81.9173C20.6666 84.4712 22.7369 86.5415 25.2908 86.5415L98.709 86.5415C101.263 86.5415 103.333 84.4712 103.333 81.9173L103.333 70.499C103.333 67.9451 101.263 65.8749 98.709 65.8749ZM33.5833 78.7915C32.1565 78.7915 30.9999 77.6349 30.9999 76.2082 30.9999 74.7814 32.1565 73.6248 33.5833 73.6248 35.01 73.6248 36.1666 74.7814 36.1666 76.2082 36.1666 77.6349 35.01 78.7915 33.5833 78.7915ZM46.4999 78.7915C45.0731 78.7915 43.9166 77.6349 43.9166 76.2082 43.9166 74.7814 45.0731 73.6248 46.4999 73.6248 47.9267 73.6248 49.0832 74.7814 49.0832 76.2082 49.0832 77.6349 47.9267 78.7915 46.4999 78.7915ZM59.4165 78.7915C57.9898 78.7915 56.8332 77.6349 56.8332 76.2082 56.8332 74.7814 57.9898 73.6248 59.4165 73.6248 60.8433 73.6248 61.9999 74.7814 61.9999 76.2082 61.9999 77.6349 60.8433 78.7915 59.4165 78.7915Z" transform="matrix(1.00806 0 0 1 1576 1048)"/><path d="M98.709 40.0416 25.2908 40.0416C22.7369 40.0416 20.6666 42.1119 20.6666 44.6657L20.6666 56.084C20.6666 58.6379 22.7369 60.7082 25.2908 60.7082L98.709 60.7082C101.263 60.7082 103.333 58.6379 103.333 56.084L103.333 44.6657C103.333 42.1119 101.263 40.0416 98.709 40.0416ZM33.5833 52.9582C32.1565 52.9582 30.9999 51.8017 30.9999 50.3749 30.9999 48.9481 32.1565 47.7916 33.5833 47.7916 35.01 47.7916 36.1666 48.9481 36.1666 50.3749 36.1666 51.8017 35.01 52.9582 33.5833 52.9582ZM46.4999 52.9582C45.0731 52.9582 43.9166 51.8017 43.9166 50.3749 43.9166 48.9481 45.0731 47.7916 46.4999 47.7916 47.9267 47.7916 49.0832 48.9481 49.0832 50.3749 49.0832 51.8017 47.9267 52.9582 46.4999 52.9582ZM59.4165 52.9582C57.9898 52.9582 56.8332 51.8017 56.8332 50.3749 56.8332 48.9481 57.9898 47.7916 59.4165 47.7916 60.8433 47.7916 61.9999 48.9481 61.9999 50.3749 61.9999 51.8017 60.8433 52.9582 59.4165 52.9582Z" transform="matrix(1.00806 0 0 1 1576 1048)"/><path d="M98.709 14.2083 25.2908 14.2083C22.7369 14.2083 20.6666 16.2786 20.6666 18.8325L20.6666 30.2508C20.6666 32.8046 22.7369 34.8749 25.2908 34.8749L98.709 34.8749C101.263 34.8749 103.333 32.8046 103.333 30.2508L103.333 18.8325C103.333 16.2786 101.263 14.2083 98.709 14.2083ZM33.5833 27.1249C32.1565 27.1249 30.9999 25.9684 30.9999 24.5416 30.9999 23.1148 32.1565 21.9583 33.5833 21.9583 35.01 21.9583 36.1666 23.1148 36.1666 24.5416 36.1666 25.9684 35.01 27.1249 33.5833 27.1249ZM46.4999 27.1249C45.0731 27.1249 43.9166 25.9684 43.9166 24.5416 43.9166 23.1148 45.0731 21.9583 46.4999 21.9583 47.9267 21.9583 49.0832 23.1148 49.0832 24.5416 49.0832 25.9684 47.9267 27.1249 46.4999 27.1249ZM59.4165 27.1249C57.9898 27.1249 56.8332 25.9684 56.8332 24.5416 56.8332 23.1148 57.9898 21.9583 59.4165 21.9583 60.8433 21.9583 61.9999 23.1148 61.9999 24.5416 61.9999 25.9684 60.8433 27.1249 59.4165 27.1249Z" transform="matrix(1.00806 0 0 1 1576 1048)"/></g></g></g><g clip-path="url(#clip43)"><g clip-path="url(#clip44)"><g clip-path="url(#clip45)"><path d="M64.2187 95.6144 72.7811 95.6144 72.7811 107.031 64.2187 107.031Z" transform="matrix(1.0073 0 0 1 2063 1037)"/><path d="M64.2187 112.739 72.7811 112.739 72.7811 121.302 64.2187 121.302Z" transform="matrix(1.0073 0 0 1 2063 1037)"/><path d="M78.4895 112.739 119.875 112.739 119.875 121.302 78.4895 121.302Z" transform="matrix(1.0073 0 0 1 2063 1037)"/><path d="M17.125 112.739 58.5103 112.739 58.5103 121.302 17.125 121.302Z" transform="matrix(1.0073 0 0 1 2063 1037)"/><path d="M109.058 72.7811 27.9423 72.7811C25.1206 72.7811 22.8333 75.0685 22.8333 77.8901L22.8333 90.5055C22.8333 93.3271 25.1206 95.6144 27.9423 95.6144L109.058 95.6144C111.879 95.6144 114.166 93.3271 114.166 90.5055L114.166 77.8901C114.166 75.0685 111.879 72.7811 109.058 72.7811ZM37.1041 87.052C35.5278 87.052 34.25 85.7741 34.25 84.1978 34.25 82.6214 35.5278 81.3436 37.1041 81.3436 38.6805 81.3436 39.9583 82.6214 39.9583 84.1978 39.9583 85.7741 38.6805 87.052 37.1041 87.052ZM51.3749 87.052C49.7986 87.052 48.5208 85.7741 48.5208 84.1978 48.5208 82.6214 49.7986 81.3436 51.3749 81.3436 52.9513 81.3436 54.2291 82.6214 54.2291 84.1978 54.2291 85.7741 52.9513 87.052 51.3749 87.052ZM65.6457 87.052C64.0694 87.052 62.7916 85.7741 62.7916 84.1978 62.7916 82.6214 64.0694 81.3436 65.6457 81.3436 67.2221 81.3436 68.4999 82.6214 68.4999 84.1978 68.4999 85.7741 67.2221 87.052 65.6457 87.052Z" transform="matrix(1.0073 0 0 1 2063 1037)"/><path d="M109.058 44.2395 27.9423 44.2395C25.1206 44.2395 22.8333 46.5268 22.8333 49.3485L22.8333 61.9639C22.8333 64.7855 25.1206 67.0728 27.9423 67.0728L109.058 67.0728C111.879 67.0728 114.166 64.7855 114.166 61.9639L114.166 49.3485C114.166 46.5268 111.879 44.2395 109.058 44.2395ZM37.1041 58.5103C35.5278 58.5103 34.25 57.2325 34.25 55.6562 34.25 54.0798 35.5278 52.802 37.1041 52.802 38.6805 52.802 39.9583 54.0798 39.9583 55.6562 39.9583 57.2325 38.6805 58.5103 37.1041 58.5103ZM51.3749 58.5103C49.7986 58.5103 48.5208 57.2325 48.5208 55.6562 48.5208 54.0798 49.7986 52.802 51.3749 52.802 52.9513 52.802 54.2291 54.0798 54.2291 55.6562 54.2291 57.2325 52.9513 58.5103 51.3749 58.5103ZM65.6457 58.5103C64.0694 58.5103 62.7916 57.2325 62.7916 55.6562 62.7916 54.0798 64.0694 52.802 65.6457 52.802 67.2221 52.802 68.4999 54.0798 68.4999 55.6562 68.4999 57.2325 67.2221 58.5103 65.6457 58.5103Z" transform="matrix(1.0073 0 0 1 2063 1037)"/><path d="M109.058 15.6979 27.9423 15.6979C25.1206 15.6979 22.8333 17.9852 22.8333 20.8068L22.8333 33.4222C22.8333 36.2439 25.1206 38.5312 27.9423 38.5312L109.058 38.5312C111.879 38.5312 114.166 36.2439 114.166 33.4222L114.166 20.8068C114.166 17.9852 111.879 15.6979 109.058 15.6979ZM37.1041 29.9687C35.5278 29.9687 34.25 28.6909 34.25 27.1145 34.25 25.5382 35.5278 24.2604 37.1041 24.2604 38.6805 24.2604 39.9583 25.5382 39.9583 27.1145 39.9583 28.6909 38.6805 29.9687 37.1041 29.9687ZM51.3749 29.9687C49.7986 29.9687 48.5208 28.6909 48.5208 27.1145 48.5208 25.5382 49.7986 24.2604 51.3749 24.2604 52.9513 24.2604 54.2291 25.5382 54.2291 27.1145 54.2291 28.6909 52.9513 29.9687 51.3749 29.9687ZM65.6457 29.9687C64.0694 29.9687 62.7916 28.6909 62.7916 27.1145 62.7916 25.5382 64.0694 24.2604 65.6457 24.2604 67.2221 24.2604 68.4999 25.5382 68.4999 27.1145 68.4999 28.6909 67.2221 29.9687 65.6457 29.9687Z" transform="matrix(1.0073 0 0 1 2063 1037)"/></g></g></g><g clip-path="url(#clip46)"><g clip-path="url(#clip47)"><g clip-path="url(#clip48)"><path d="M62.3438 92.8229 70.6563 92.8229 70.6563 103.906 62.3438 103.906Z" transform="matrix(1.00752 0 0 1 2487 959)"/><path d="M62.3438 109.448 70.6563 109.448 70.6563 117.76 62.3438 117.76Z" transform="matrix(1.00752 0 0 1 2487 959)"/><path d="M76.1979 109.448 116.375 109.448 116.375 117.76 76.1979 117.76Z" transform="matrix(1.00752 0 0 1 2487 959)"/><path d="M16.625 109.448 56.8021 109.448 56.8021 117.76 16.625 117.76Z" transform="matrix(1.00752 0 0 1 2487 959)"/><path d="M105.874 70.6563 27.1265 70.6563C24.3872 70.6563 22.1667 72.8768 22.1667 75.6161L22.1667 87.8631C22.1667 90.6024 24.3872 92.8229 27.1265 92.8229L105.874 92.8229C108.613 92.8229 110.833 90.6024 110.833 87.8631L110.833 75.6161C110.833 72.8768 108.613 70.6563 105.874 70.6563ZM36.0208 84.5104C34.4905 84.5104 33.25 83.2699 33.25 81.7396 33.25 80.2093 34.4905 78.9688 36.0208 78.9688 37.5512 78.9688 38.7917 80.2093 38.7917 81.7396 38.7917 83.2699 37.5512 84.5104 36.0208 84.5104ZM49.875 84.5104C48.3447 84.5104 47.1042 83.2699 47.1042 81.7396 47.1042 80.2093 48.3447 78.9688 49.875 78.9688 51.4053 78.9688 52.6458 80.2093 52.6458 81.7396 52.6458 83.2699 51.4053 84.5104 49.875 84.5104ZM63.7292 84.5104C62.1989 84.5104 60.9583 83.2699 60.9583 81.7396 60.9583 80.2093 62.1989 78.9688 63.7292 78.9688 65.2595 78.9688 66.5 80.2093 66.5 81.7396 66.5 83.2699 65.2595 84.5104 63.7292 84.5104Z" transform="matrix(1.00752 0 0 1 2487 959)"/><path d="M105.874 42.9479 27.1265 42.9479C24.3872 42.9479 22.1667 45.1685 22.1667 47.9077L22.1667 60.1548C22.1667 62.8941 24.3872 65.1146 27.1265 65.1146L105.874 65.1146C108.613 65.1146 110.833 62.8941 110.833 60.1548L110.833 47.9077C110.833 45.1685 108.613 42.9479 105.874 42.9479ZM36.0208 56.8021C34.4905 56.8021 33.25 55.5616 33.25 54.0313 33.25 52.5009 34.4905 51.2604 36.0208 51.2604 37.5512 51.2604 38.7917 52.5009 38.7917 54.0313 38.7917 55.5616 37.5512 56.8021 36.0208 56.8021ZM49.875 56.8021C48.3447 56.8021 47.1042 55.5616 47.1042 54.0313 47.1042 52.5009 48.3447 51.2604 49.875 51.2604 51.4053 51.2604 52.6458 52.5009 52.6458 54.0313 52.6458 55.5616 51.4053 56.8021 49.875 56.8021ZM63.7292 56.8021C62.1989 56.8021 60.9583 55.5616 60.9583 54.0313 60.9583 52.5009 62.1989 51.2604 63.7292 51.2604 65.2595 51.2604 66.5 52.5009 66.5 54.0313 66.5 55.5616 65.2595 56.8021 63.7292 56.8021Z" transform="matrix(1.00752 0 0 1 2487 959)"/><path d="M105.874 15.2396 27.1265 15.2396C24.3872 15.2396 22.1667 17.4601 22.1667 20.1994L22.1667 32.4465C22.1667 35.1857 24.3872 37.4063 27.1265 37.4063L105.874 37.4063C108.613 37.4063 110.833 35.1857 110.833 32.4465L110.833 20.1994C110.833 17.4601 108.613 15.2396 105.874 15.2396ZM36.0208 29.0938C34.4905 29.0938 33.25 27.8533 33.25 26.3229 33.25 24.7926 34.4905 23.5521 36.0208 23.5521 37.5512 23.5521 38.7917 24.7926 38.7917 26.3229 38.7917 27.8533 37.5512 29.0938 36.0208 29.0938ZM49.875 29.0938C48.3447 29.0938 47.1042 27.8533 47.1042 26.3229 47.1042 24.7926 48.3447 23.5521 49.875 23.5521 51.4053 23.5521 52.6458 24.7926 52.6458 26.3229 52.6458 27.8533 51.4053 29.0938 49.875 29.0938ZM63.7292 29.0938C62.1989 29.0938 60.9583 27.8533 60.9583 26.3229 60.9583 24.7926 62.1989 23.5521 63.7292 23.5521 65.2595 23.5521 66.5 24.7926 66.5 26.3229 66.5 27.8533 65.2595 29.0938 63.7292 29.0938Z" transform="matrix(1.00752 0 0 1 2487 959)"/></g></g></g><path d="M0 0 365.909 363.088" stroke="#7030A0" stroke-width="6.875" stroke-miterlimit="8" stroke-dasharray="27.5 20.625" fill="none" fill-rule="evenodd" transform="matrix(-1 0 0 1 1524.41 1191.5)"/><path d="M1523.5 1191.5 1901.09 1562.59" stroke="#7030A0" stroke-width="6.875" stroke-miterlimit="8" stroke-dasharray="27.5 20.625" fill="none" fill-rule="evenodd"/><path d="M1901.89 1562.6C1796.41 1664.31 1546.2 1703.96 1343.03 1651.16 1261.83 1630.06 1196.86 1596.11 1158.24 1554.59L1158.24 1554.59C1254.88 1658.48 1501.45 1703.48 1708.97 1655.11 1791.91 1635.77 1859.74 1603.25 1901.89 1562.6Z" stroke="#7030A0" stroke-width="4.58333" stroke-miterlimit="8" stroke-dasharray="18.3333 13.75" fill="#4472C4" fill-rule="evenodd"/><path d="M0 0 411.024 394.12" stroke="#7030A0" stroke-width="6.875" stroke-miterlimit="8" stroke-dasharray="27.5 20.625" fill="none" fill-rule="evenodd" transform="matrix(-1 0 0 1 2010.52 1169.5)"/><path d="M2010.5 1169.5 2390.87 1572.35" stroke="#7030A0" stroke-width="6.875" stroke-miterlimit="8" stroke-dasharray="27.5 20.625" fill="none" fill-rule="evenodd"/><path d="M2390.44 1572.85C2284.95 1688.28 2023.96 1736.25 1807.5 1680 1714.4 1655.81 1640.49 1614.73 1599 1564.13L1599 1564.13C1695.45 1681.78 1952.5 1735.47 2173.14 1684.03 2268.04 1661.91 2345.07 1622.5 2390.44 1572.85Z" stroke="#7030A0" stroke-width="4.58333" stroke-miterlimit="8" stroke-dasharray="18.3333 13.75" fill="#4472C4" fill-rule="evenodd"/><path d="M0 0 377.541 411.866" stroke="#7030A0" stroke-width="6.875" stroke-miterlimit="8" stroke-dasharray="27.5 20.625" fill="none" fill-rule="evenodd" transform="matrix(-1 0 0 1 2432.04 1105.5)"/><path d="M2431.5 1105.5 2822.78 1526.21" stroke="#7030A0" stroke-width="6.875" stroke-miterlimit="8" stroke-dasharray="27.5 20.625" fill="none" fill-rule="evenodd"/><path d="M2823.37 1526.61C2733.7 1655.17 2490.26 1715.02 2279.63 1660.28 2176.09 1633.38 2094.93 1581.93 2054.78 1517.77L2054.78 1517.77C2136.45 1648.3 2376.03 1713.7 2589.89 1663.85 2695.01 1639.34 2779.29 1589.8 2823.37 1526.61Z" stroke="#7030A0" stroke-width="4.58333" stroke-miterlimit="8" stroke-dasharray="18.3333 13.75" fill="#4472C4" fill-rule="evenodd"/><text font-family="Calibri,Calibri_MSFontService,sans-serif" font-weight="400" font-size="64" transform="matrix(1 0 0 1 2640.5 1065)">Server</text></g></svg>